<?xml version="1.0" encoding="UTF-8" standalone="no"?>
<!-- Created with Inkscape (http://www.inkscape.org/) -->

<svg
   version="1.1"
   id="svg1"
   width="0.87898225cm"
   height="0.83225286cm"
   viewBox="0 0 33.221376 31.455226"
   xml:space="preserve"
   xmlns="http://www.w3.org/2000/svg"
   xmlns:svg="http://www.w3.org/2000/svg"><defs
     id="defs1" /><g
     id="layer16"
     transform="translate(-18471.679,-429.87217)"><g
       id="g322"
       transform="translate(1216.2047,12.983369)"><g
         id="g321"
         transform="translate(-2.966761,-36.815354)"><rect
           style="opacity:1;fill:#ffffff;fill-opacity:1;stroke:#01a913;stroke-width:1.13386;stroke-linecap:round;stroke-linejoin:round;stroke-miterlimit:0;stroke-dasharray:none;stroke-opacity:1;paint-order:fill markers stroke"
           id="rect308"
           width="32.087517"
           height="30.321367"
           x="17259.008"
           y="454.27109"
           ry="6.7728148"
           rx="6.7728148" /><g
           id="g320"
           transform="matrix(0.83170764,0,0,0.83170764,2908.0436,79.865636)"><path
             id="path310"
             style="fill:#01a913;fill-opacity:1;stroke-width:0.0655767"
             d="m 17279.553,453.45313 -10.537,2.14648 v 3.66992 l 0.865,-0.0996 -0.02,9.68555 -2.31,0.22656 -0.03,0.0176 v 0.36133 l 0.09,0.0508 0.188,9.58008 -0.05,0.0547 v 0.37695 c 2.273,1.77608 5.9,2.92504 9.949,3.80469 0.08,0.0149 0.143,-0.005 0.194,-0.0469 l 2.709,-2.68554 -0.01,-10.74414 c 0.06,-0.0231 0.09,-0.0438 0.105,-0.0879 l -0.02,-0.30273 c 0,-0.0431 -0.03,-0.0705 -0.09,-0.082 l -1.834,-0.20899 0.154,-10.99023 0.539,-0.0586 z m -1.783,4.83984 -0.153,10.76953 -4.617,-0.46289 -0.334,-0.01 -1.668,0.15625 0.02,-9.71289 z" /><path
             id="path311"
             style="fill:#ffffff;fill-opacity:1;stroke:none;stroke-width:0.0557662;stroke-linecap:round;stroke-linejoin:round;stroke-miterlimit:0;stroke-dasharray:none;stroke-opacity:1;paint-order:fill markers stroke"
             d="m 17272.818,468.71485 -1.82,0.20117 v 0.10937 a 0.56693,0.56693 0 0 1 -0.568,0.56641 0.56693,0.56693 0 0 1 -0.563,-0.54883 l -1.759,0.19531 c 2.904,1.20328 6.216,1.74196 9.662,2.0625 l 2.675,-1.78711 -1.697,-0.17773 -0.01,0.92188 a 0.56692916,0.56692916 0 0 1 -0.574,0.56054 0.56692916,0.56692916 0 0 1 -0.558,-0.57617 l 0.01,-1.02344 z" /><path
             style="color:#000000;fill:#ceced0;stroke-linecap:round;stroke-linejoin:round;stroke-miterlimit:0;-inkscape-stroke:none;paint-order:fill markers stroke"
             d="m 17270.449,458.316 -0.02,10.70893"
             id="path312" /><path
             style="fill:#ffffff;fill-opacity:1;stroke:#01a913;stroke-width:0.241653;stroke-linecap:round;stroke-linejoin:round;stroke-miterlimit:0;stroke-dasharray:none;stroke-opacity:1;paint-order:fill markers stroke"
             d="m 17269.845,458.40655 8.687,-3.9105 -8.625,1.71837 z"
             id="path313" /><path
             style="fill:#ffffff;fill-opacity:1;stroke:#01a913;stroke-width:0.241653;stroke-linecap:round;stroke-linejoin:round;stroke-miterlimit:0;stroke-dasharray:none;stroke-opacity:1;paint-order:fill markers stroke"
             d="m 17280.347,470.32603 -2.361,12.38953 2.153,-2.47002 z"
             id="path319" /><path
             style="color:#000000;fill:#ceced0;stroke-linecap:round;stroke-linejoin:round;stroke-miterlimit:0;-inkscape-stroke:none;paint-order:fill markers stroke"
             d="m 17278.347,457.53499 -0.179,12.71564"
             id="path320" /></g></g></g></g></svg>
