<?xml version="1.0" encoding="UTF-8" standalone="no"?>
<!-- Created with Inkscape (http://www.inkscape.org/) -->

<svg
   version="1.1"
   id="svg1"
   width="0.87898225cm"
   height="0.83225286cm"
   viewBox="0 0 33.221376 31.455226"
   xml:space="preserve"
   xmlns="http://www.w3.org/2000/svg"
   xmlns:svg="http://www.w3.org/2000/svg"><defs
     id="defs1" /><g
     id="layer16"
     transform="translate(-19207.062,-604.35928)"><g
       id="g340"
       transform="translate(1216.2047,12.983369)"><g
         id="g339"
         transform="translate(0,-35.771453)"><rect
           style="fill:#ffffff;fill-opacity:1;stroke:#01a913;stroke-width:1.13386;stroke-linecap:round;stroke-linejoin:round;stroke-miterlimit:0;stroke-dasharray:none;stroke-opacity:1;paint-order:fill markers stroke"
           id="rect332"
           width="32.087517"
           height="30.321367"
           x="17991.424"
           y="627.71429"
           ry="6.7728148"
           rx="6.7728148" /><g
           id="g338"><ellipse
             style="opacity:1;fill:#01a913;fill-opacity:1;stroke:none;stroke-width:0.576528;stroke-linecap:butt;stroke-linejoin:round;stroke-miterlimit:0;stroke-dasharray:none;stroke-opacity:1;paint-order:fill markers stroke"
             id="ellipse332"
             cx="16520.057"
             cy="7180.1636"
             rx="0.60537988"
             ry="0.72296011"
             transform="rotate(-21.469196)" /><g
             id="g337"
             transform="translate(-3.7183103e-4)"><path
               style="fill:#01a913;fill-opacity:1;stroke:none;stroke-width:0.0322709;stroke-linecap:butt;stroke-linejoin:round;stroke-miterlimit:0;stroke-dasharray:none;stroke-opacity:1;paint-order:fill markers stroke"
               d="m 17993.531,648.35628 c -0.516,-5.13676 0.276,-9.89074 7.757,-12.68669 6.307,-0.70299 10.828,1.72505 12.661,8.86705 6.355,0.67732 7.635,0.89831 7.58,2.44834 -0.08,2.24045 -3.552,2.53447 -7.531,0.7576 -3.669,2.64791 -7.922,3.83359 -14.033,0.36024 z"
               id="path333" /><path
               style="fill:#015d0a;fill-opacity:1;stroke:none;stroke-width:0.0322709;stroke-linecap:butt;stroke-linejoin:round;stroke-miterlimit:0;stroke-dasharray:none;stroke-opacity:1;paint-order:fill markers stroke"
               d="m 18014.038,647.7646 c 4.603,1.5993 7.082,1.62412 7.132,-0.74545 0.04,-1.69805 -2.472,-1.19201 -3.85,-0.81735 -1.012,0.2751 -2.169,0.98377 -3.282,1.5628 z"
               id="path334" /><path
               style="fill:#015d0a;fill-opacity:1;stroke:none;stroke-width:0.0322709;stroke-linecap:butt;stroke-linejoin:round;stroke-miterlimit:0;stroke-dasharray:none;stroke-opacity:1;paint-order:fill markers stroke"
               d="m 17993.78,648.43243 c -0.441,-0.51828 2.651,-0.65307 4.914,-0.87771 l 1.069,0.41507 c -1.989,0.20489 -3.974,0.46704 -5.983,0.46264 z"
               id="path335" /><path
               style="fill:#ffffff;fill-opacity:0.651095;stroke:none;stroke-width:0.0322709;stroke-linecap:butt;stroke-linejoin:round;stroke-miterlimit:0;stroke-dasharray:none;stroke-opacity:1;paint-order:fill markers stroke"
               d="m 18000.576,646.58011 c 0.196,-3.89885 -2.735,-9.77489 1.606,-11.05361 10.095,-0.51905 9.008,5.70474 11.065,8.79171 -4.224,0.0206 -8.447,0.86995 -12.671,2.2619 z"
               id="path336" /><path
               style="fill:#ffffff;fill-opacity:0.651095;stroke:none;stroke-width:0.0322709;stroke-linecap:butt;stroke-linejoin:round;stroke-miterlimit:0;stroke-dasharray:none;stroke-opacity:1;paint-order:fill markers stroke"
               d="m 18005.545,649.86411 c 0.558,-0.2234 2.491,-4.9317 1.974,-4.79954 1.84,-0.54902 3.779,-0.64501 5.192,-0.62152 0,0 6.404,0.93796 6.206,0.89059 -1.772,-0.42552 -11.115,6.08093 -13.372,4.53047 z"
               id="path337" /></g></g></g></g></g></svg>
