<?xml version="1.0" encoding="UTF-8" standalone="no"?>
<!-- Created with Inkscape (http://www.inkscape.org/) -->

<svg
   version="1.1"
   id="svg1"
   width="0.87898225cm"
   height="0.83225286cm"
   viewBox="0 0 33.221376 31.455226"
   xml:space="preserve"
   xmlns="http://www.w3.org/2000/svg"
   xmlns:svg="http://www.w3.org/2000/svg"><defs
     id="defs1" /><g
     id="layer16"
     transform="translate(-19207.062,-519.78152)"><g
       id="g345"
       transform="translate(1216.2047,12.983369)"><rect
         style="fill:#ffffff;fill-opacity:1;stroke:#01a913;stroke-width:1.13386;stroke-linecap:round;stroke-linejoin:round;stroke-miterlimit:0;stroke-dasharray:none;stroke-opacity:1;paint-order:fill markers stroke"
         id="rect340"
         width="32.087517"
         height="30.321367"
         x="17991.424"
         y="507.36508"
         ry="6.7728148"
         rx="6.7728148" /><path
         style="fill:#015d0a;fill-opacity:1;stroke:none;stroke-width:0.0403909;stroke-linecap:butt;stroke-linejoin:round;stroke-miterlimit:0;stroke-dasharray:none;stroke-opacity:1;paint-order:fill markers stroke"
         d="m 18019.264,528.7569 -13.01,-14.44755 -1.078,-1.07075 c 0.189,-0.50427 0.711,-0.92358 -0.45,-1.76706 -0.658,-0.63069 -1.061,-1.02399 -1.601,-1.52687 -0.104,-0.10898 -0.257,-0.0875 -0.437,0.0252 -0.171,0.10749 -0.371,0.30472 -0.641,0.47244 -0.531,-0.32461 -1.064,-0.81177 -1.498,-0.7177 -0.513,0.11097 -1.055,0.8014 -1.518,1.21846 -0.871,0.78451 -1.688,1.86768 -1.995,2.2682 -0.662,0.86691 -1.175,2.20821 -1.548,3.17794 -0.132,0.34138 -0.302,0.54127 -0.275,1.03111 0.03,0.45968 0.891,0.21525 1.159,0.18089 -0.243,1.12003 0.988,1.65038 1.529,2.4569 1.719,2.43721 4.067,4.12731 6.102,6.18891 0,0 8.415,8.92524 8.651,8.98464 1.743,0.47395 7.7,-6.07223 6.609,-6.47407 z"
         id="path340" /><rect
         style="fill:#01a913;fill-opacity:1;stroke:none;stroke-width:0.667673;stroke-linecap:butt;stroke-linejoin:round;stroke-miterlimit:0;stroke-dasharray:none;stroke-opacity:1;paint-order:fill markers stroke"
         id="rect341"
         width="1.444135"
         height="21.431734"
         x="12662.295"
         y="12806.665"
         transform="rotate(-43.686298)" /><rect
         style="fill:#01a913;fill-opacity:1;stroke:none;stroke-width:0.172763;stroke-linecap:butt;stroke-linejoin:round;stroke-miterlimit:0;stroke-dasharray:none;stroke-opacity:1;paint-order:fill markers stroke"
         id="rect342"
         width="1.444135"
         height="1.4349203"
         x="12662.295"
         y="12804.283"
         transform="rotate(-43.686298)" /><rect
         style="fill:#eeeeee;fill-opacity:1;stroke:none;stroke-width:0.384408;stroke-linecap:butt;stroke-linejoin:round;stroke-miterlimit:0;stroke-dasharray:none;stroke-opacity:1;paint-order:fill markers stroke"
         id="rect343"
         width="1.3161906"
         height="1.3736033"
         x="12662.355"
         y="12803.641"
         transform="rotate(-43.686298)" /><rect
         style="fill:#eeeeee;fill-opacity:1;stroke:none;stroke-width:0.769588;stroke-linecap:butt;stroke-linejoin:round;stroke-miterlimit:0;stroke-dasharray:none;stroke-opacity:1;paint-order:fill markers stroke"
         id="rect344"
         width="1.3161906"
         height="5.5054641"
         x="12662.355"
         y="12806.858"
         transform="rotate(-43.686298)" /><rect
         style="fill:#01a913;fill-opacity:1;stroke:none;stroke-width:0.132146;stroke-linecap:butt;stroke-linejoin:round;stroke-miterlimit:0;stroke-dasharray:none;stroke-opacity:1;paint-order:fill markers stroke"
         id="rect345"
         width="0.84492177"
         height="1.4349203"
         x="12662.592"
         y="12801.855"
         transform="rotate(-43.686298)" /></g></g></svg>
