<?xml version="1.0" encoding="UTF-8" standalone="no"?>
<!-- Created with Inkscape (http://www.inkscape.org/) -->

<svg
   version="1.1"
   id="svg1"
   width="0.87898225cm"
   height="0.83225286cm"
   viewBox="0 0 33.221376 31.455226"
   xml:space="preserve"
   xmlns="http://www.w3.org/2000/svg"
   xmlns:svg="http://www.w3.org/2000/svg"><defs
     id="defs1" /><g
     id="layer16"
     transform="translate(-19205.263,-352.23083)"><g
       id="g363"
       transform="translate(1216.2047,12.983369)"><rect
         style="fill:#ffffff;fill-opacity:1;stroke:#01a913;stroke-width:1.13386;stroke-linecap:round;stroke-linejoin:round;stroke-miterlimit:0;stroke-dasharray:none;stroke-opacity:1;paint-order:fill markers stroke"
         id="rect351"
         width="32.087517"
         height="30.321367"
         x="17989.625"
         y="339.81439"
         ry="6.7728148"
         rx="6.7728148" /><g
         id="g362"
         transform="translate(-0.6320637,-34.779523)"><rect
           style="opacity:1;fill:#01a913;fill-opacity:1;stroke:none;stroke-width:0.831496;stroke-linecap:butt;stroke-linejoin:round;stroke-miterlimit:0;stroke-dasharray:none;stroke-opacity:1;paint-order:fill markers stroke"
           id="rect352"
           width="15.685534"
           height="15.375178"
           x="18001.709"
           y="386.75803"
           ry="1.0304476"
           rx="1.0304476" /><g
           id="g353"
           transform="matrix(0.77702601,-0.53886619,0.53886619,0.77702601,3836.5732,9767.8424)"><path
             style="opacity:1;fill:none;fill-opacity:1;stroke:#b0b2b3;stroke-width:2.34843;stroke-linecap:butt;stroke-linejoin:round;stroke-miterlimit:0;stroke-dasharray:none;stroke-opacity:1;paint-order:fill markers stroke"
             d="m 17961.411,383.8222 c -1.213,-2.10082 -3.767,-9.14341 1.892,-9.14341 5.658,0 3.481,6.46786 1.936,9.14341"
             id="path352" /><path
             style="opacity:1;fill:none;fill-opacity:1;stroke:#01a913;stroke-width:2.34843;stroke-linecap:butt;stroke-linejoin:round;stroke-miterlimit:0;stroke-dasharray:none;stroke-opacity:1;paint-order:fill markers stroke"
             d="m 17960.274,381.11643 c -0.864,-2.82264 -1.025,-6.43764 3.029,-6.43764 4.08,0 4.086,3.36334 3.192,6.2426"
             id="path353" /></g><path
           style="opacity:1;fill:none;fill-opacity:1;stroke:#01a913;stroke-width:0.307745;stroke-linecap:round;stroke-linejoin:round;stroke-miterlimit:0;stroke-dasharray:none;stroke-opacity:1;paint-order:fill markers stroke"
           d="m 17996.218,402.12693 1.073,-1.80328 1.914,0.86187 1.073,-1.80328"
           id="path354" /><path
           style="opacity:1;fill:none;fill-opacity:1;stroke:#01a913;stroke-width:0.307745;stroke-linecap:round;stroke-linejoin:round;stroke-miterlimit:0;stroke-dasharray:none;stroke-opacity:1;paint-order:fill markers stroke"
           d="m 17995.818,400.83843 1.073,-1.80328 1.914,0.86187 1.073,-1.80328"
           id="path355" /><path
           style="opacity:1;fill:none;fill-opacity:1;stroke:#01a913;stroke-width:0.307745;stroke-linecap:round;stroke-linejoin:round;stroke-miterlimit:0;stroke-dasharray:none;stroke-opacity:1;paint-order:fill markers stroke"
           d="m 18014.679,385.98763 1.073,-1.80328 1.914,0.86187 1.073,-1.80328"
           id="path356" /><path
           style="opacity:1;fill:none;fill-opacity:1;stroke:#01a913;stroke-width:0.307745;stroke-linecap:round;stroke-linejoin:round;stroke-miterlimit:0;stroke-dasharray:none;stroke-opacity:1;paint-order:fill markers stroke"
           d="m 18014.279,384.69913 1.073,-1.80328 1.914,0.86187 1.073,-1.80328"
           id="path357" /><path
           style="opacity:1;fill:none;fill-opacity:1;stroke:#01a913;stroke-width:0.307745;stroke-linecap:round;stroke-linejoin:round;stroke-miterlimit:0;stroke-dasharray:none;stroke-opacity:1;paint-order:fill markers stroke"
           d="m 18006.919,385.78364 -0.23,-2.08571 2.047,-0.46535 -0.23,-2.08571"
           id="path358" /><path
           style="opacity:1;fill:none;fill-opacity:1;stroke:#01a913;stroke-width:0.307745;stroke-linecap:round;stroke-linejoin:round;stroke-miterlimit:0;stroke-dasharray:none;stroke-opacity:1;paint-order:fill markers stroke"
           d="m 18005.824,384.99628 -0.23,-2.08571 2.047,-0.46535 -0.23,-2.08571"
           id="path359" /><path
           style="opacity:1;fill:none;fill-opacity:1;stroke:#01a913;stroke-width:0.307745;stroke-linecap:round;stroke-linejoin:round;stroke-miterlimit:0;stroke-dasharray:none;stroke-opacity:1;paint-order:fill markers stroke"
           d="m 17995.739,392.86794 1.51,-1.45646 1.619,1.33612 1.511,-1.45646"
           id="path360" /><path
           style="opacity:1;fill:none;fill-opacity:1;stroke:#01a913;stroke-width:0.307745;stroke-linecap:round;stroke-linejoin:round;stroke-miterlimit:0;stroke-dasharray:none;stroke-opacity:1;paint-order:fill markers stroke"
           d="m 17995.693,391.52003 1.511,-1.45646 1.619,1.33612 1.51,-1.45646"
           id="path361" /><path
           style="opacity:1;fill:#015d0a;fill-opacity:1;stroke:none;stroke-width:0.453543;stroke-linecap:round;stroke-linejoin:round;stroke-miterlimit:0;stroke-dasharray:none;stroke-opacity:1;paint-order:fill markers stroke"
           id="path362"
           d="m 18011.733,396.21139 -4.116,-1.8259 -4.124,1.80544 0.464,-4.47856 -2.991,-3.36499 4.403,-0.942 2.275,-3.88512 2.257,3.89637 4.398,0.96386 -3.008,3.35009 z"
           transform="matrix(0.77704321,0,0,0.77704321,4016.842,91.651119)" /></g><path
         style="fill:#ffffff;fill-opacity:0.454391;stroke:none;stroke-width:0.453543;stroke-linecap:round;stroke-linejoin:round;stroke-miterlimit:0;stroke-dasharray:none;stroke-opacity:1;paint-order:fill markers stroke"
         d="m 18009.358,388.87376 6.567,8.41557 v -6.3275 a 2.0880737,2.0880737 45 0 0 -2.088,-2.08807 z"
         id="path363"
         transform="translate(0.1958625,-36.032809)" /></g></g></svg>
