<?xml version="1.0" encoding="UTF-8" standalone="no"?>
<!-- Created with Inkscape (http://www.inkscape.org/) -->

<svg
   version="1.1"
   id="svg1"
   width="0.87898225cm"
   height="0.83225286cm"
   viewBox="0 0 33.221376 31.455226"
   xml:space="preserve"
   xmlns="http://www.w3.org/2000/svg"
   xmlns:svg="http://www.w3.org/2000/svg"><defs
     id="defs1" /><g
     id="layer16"
     transform="translate(-19207.062,-435.87078)"><g
       id="g392"
       transform="translate(1216.2047,12.983369)"><rect
         style="fill:#ffffff;fill-opacity:1;stroke:#01a913;stroke-width:1.13386;stroke-linecap:round;stroke-linejoin:round;stroke-miterlimit:0;stroke-dasharray:none;stroke-opacity:1;paint-order:fill markers stroke"
         id="rect387"
         width="32.087517"
         height="30.321367"
         x="17991.424"
         y="423.45435"
         ry="6.7728148"
         rx="6.7728148" /><path
         id="path386"
         style="fill:#01a913;fill-opacity:1;stroke:none;stroke-width:0.453543;stroke-linecap:round;stroke-linejoin:round;stroke-miterlimit:0;stroke-dasharray:none;stroke-opacity:1;paint-order:fill markers stroke"
         d="m 18022.51,428.01646 c -6.776,0.0229 -14.849,-0.20079 -21.619,0.041 -2.568,0.0917 -4.738,2.78664 -4.76,5.38006 -0.08,2.44131 0,4.88612 -0.03,7.3293 0.02,3.9194 -0.07,8.52797 0.07,12.44048 0.633,0.41594 1.374,0.76546 2.267,0.63478 6.165,-0.0223 12.336,-0.1441 18.496,-0.2345 2.929,-0.82434 5.19,-3.46106 5.862,-6.38492 -0.09,-6.15986 1.028,-12.57184 0.906,-18.73358 -0.07,-0.65506 -0.728,-0.45537 -1.195,-0.47265 z" /><path
         style="fill:#65d371;fill-opacity:1;stroke:none;stroke-width:0.453543;stroke-linecap:round;stroke-linejoin:round;stroke-miterlimit:0;stroke-dasharray:none;stroke-opacity:1;paint-order:fill markers stroke"
         d="m 17996.878,489.76442 v -20.0373 a 5.3599557,5.3599557 135 0 1 5.36,-5.35996 l 20.941,0 0.417,19.11285 c -0.92,2.8836 -2.653,5.13882 -5.843,6.26867 z"
         id="path387"
         transform="translate(0,-35.771453)" /><circle
         style="fill:#015d0a;fill-opacity:1;stroke:none;stroke-width:0.453543;stroke-linecap:round;stroke-linejoin:round;stroke-miterlimit:0;stroke-dasharray:none;stroke-opacity:1;paint-order:fill markers stroke"
         id="circle387"
         cx="18010.553"
         cy="439.05276"
         r="5.9761443" /><circle
         style="fill:#ffffff;fill-opacity:1;stroke:none;stroke-width:0.453543;stroke-linecap:round;stroke-linejoin:round;stroke-miterlimit:0;stroke-dasharray:none;stroke-opacity:1;paint-order:fill markers stroke"
         id="circle388"
         cx="18010.553"
         cy="439.05276"
         r="3.3529673" /><g
         id="g389"
         transform="translate(0.03704342,-35.740081)"
         style="fill:#b1feb8;fill-opacity:0.811679"><path
           style="color:#000000;fill:#b1feb8;fill-opacity:0.811679;stroke-linecap:round;stroke-linejoin:round;stroke-miterlimit:0;-inkscape-stroke:none;paint-order:fill markers stroke"
           d="m 18006.117,476.94922 a 2.5858266,2.1832988 0 0 1 0.414,-0.18555 c 0,-0.01 -0.01,-0.0194 -0.01,-0.0293 -0.03,-0.0612 -0.06,-0.12274 -0.09,-0.18555 -0.03,-0.0628 -0.05,-0.12709 -0.08,-0.19141 -0.02,-0.0643 -0.05,-0.12957 -0.07,-0.19531 -0.02,-0.0657 -0.04,-0.13215 -0.06,-0.19922 -0.02,-0.0671 -0.04,-0.13481 -0.05,-0.20312 -0.01,-0.0683 -0.03,-0.13757 -0.04,-0.20703 -0.01,-0.0695 -0.02,-0.13845 -0.03,-0.20899 0,-0.0705 -0.01,-0.14138 -0.02,-0.21289 0,-0.0715 0,-0.1444 0,-0.21679 0,-0.0724 0,-0.14529 0,-0.2168 0,-0.0715 0.01,-0.14237 0.02,-0.21289 0,-0.0705 0.02,-0.13953 0.03,-0.20899 0.01,-0.0695 0.02,-0.13873 0.04,-0.20703 0.02,-0.0683 0.03,-0.13607 0.05,-0.20312 0.02,-0.0671 0.04,-0.1335 0.06,-0.19922 0.02,-0.0657 0.04,-0.13102 0.07,-0.19531 0.02,-0.0643 0.05,-0.12667 0.08,-0.18946 0.03,-0.0628 0.06,-0.12631 0.09,-0.1875 0.03,-0.0612 0.06,-0.12019 0.1,-0.17968 0.03,-0.0595 0.07,-0.11806 0.106,-0.17579 0.04,-0.0577 0.07,-0.11601 0.113,-0.17187 0.04,-0.0559 0.08,-0.11016 0.123,-0.16406 0.04,-0.0539 0.08,-0.10634 0.129,-0.15821 0.01,-0.0129 0.02,-0.0244 0.03,-0.0371 a 2.632786,3.2054734 0 0 0 -0.131,-0.0488 2.632786,3.2054734 0 0 0 -0.379,-0.0469 c 0,0.006 0,0.0117 -0.01,0.0176 -0.05,0.0597 -0.09,0.11977 -0.135,0.18164 -0.04,0.0619 -0.09,0.12551 -0.127,0.18945 -0.04,0.0639 -0.08,0.12939 -0.117,0.19532 -0.04,0.0659 -0.07,0.13336 -0.108,0.20117 -0.03,0.0678 -0.06,0.13548 -0.1,0.20508 -0.03,0.0696 -0.06,0.13965 -0.09,0.21093 -0.03,0.0713 -0.05,0.14392 -0.08,0.2168 -0.02,0.0729 -0.05,0.14633 -0.07,0.2207 -0.02,0.0744 -0.04,0.14884 -0.05,0.22461 -0.02,0.0758 -0.03,0.1534 -0.04,0.23047 -0.01,0.0771 -0.02,0.15415 -0.03,0.23242 0,0.0783 -0.01,0.15695 -0.02,0.23633 0,0.0794 0,0.15984 0,0.24024 0,0.0804 0,0.16084 0,0.24023 0,0.0794 0.01,0.15804 0.02,0.23633 0,0.0783 0.02,0.15534 0.03,0.23242 0.01,0.0771 0.03,0.15468 0.04,0.23047 0.02,0.0758 0.03,0.15022 0.05,0.22461 0.02,0.0744 0.04,0.14781 0.07,0.2207 0.02,0.0729 0.05,0.14549 0.08,0.2168 0.03,0.0713 0.06,0.14132 0.09,0.21094 0.03,0.0696 0.06,0.13919 0.1,0.20703 0,0.005 0,0.0104 0,0.0156 z"
           id="path388" /><path
           style="color:#000000;fill:#b1feb8;fill-opacity:0.811679;stroke-linecap:round;stroke-linejoin:round;stroke-miterlimit:0;-inkscape-stroke:none;paint-order:fill markers stroke"
           d="m 18006.619,471.92187 a 0.18899527,0.18899527 0 0 0 -0.146,0.0742 0.18899527,0.18899527 0 0 0 -0.02,0.0117 c -0.06,0.0695 -0.1,0.13351 -0.143,0.19141 a 0.18899527,0.18899527 0 0 0 0,0.008 c -0.03,0.0512 -0.09,0.11843 -0.133,0.19922 -0.04,0.0633 -0.08,0.1293 -0.117,0.19727 -0.05,0.0765 -0.08,0.14449 -0.11,0.20117 a 0.18899527,0.18899527 0 0 0 0,0.0156 c -0.03,0.0677 -0.06,0.1284 -0.09,0.1875 a 0.18899527,0.18899527 0 0 0 -0.01,0.0195 c -0.03,0.0699 -0.06,0.13894 -0.09,0.21094 -0.04,0.0859 -0.06,0.15939 -0.08,0.21875 a 0.18899527,0.18899527 0 0 0 0,0.0215 c -0.02,0.0576 -0.05,0.13264 -0.07,0.22265 -0.02,0.0673 -0.04,0.14283 -0.05,0.22461 -0.02,0.0915 -0.03,0.1789 -0.05,0.25586 -0.01,0.0771 -0.02,0.15391 -0.03,0.23242 a 0.18899527,0.18899527 0 0 0 0,0.0234 c 0,0.0622 -0.01,0.13337 -0.02,0.21289 a 0.18899527,0.18899527 0 0 0 0,0.0234 v 0.24023 0.24024 c 0,0.0953 0.01,0.1814 0.02,0.25976 v -0.0234 c 0,0.11048 0.02,0.19473 0.03,0.25586 0.01,0.0929 0.03,0.17245 0.04,0.23243 a 0.18899527,0.18899527 0 0 0 0,0.0234 c 0.02,0.0613 0.02,0.13496 0.05,0.22461 0.02,0.0681 0.04,0.14437 0.07,0.22266 0,0.007 0,0.0124 0,0.0195 0,6.3e-4 0,0.001 0,0.002 0.02,0.0792 0.05,0.15314 0.08,0.21875 0.03,0.0721 0.06,0.14108 0.09,0.21094 0.03,0.0696 0.06,0.14758 0.111,0.22852 l -0.02,-0.0742 a 0.18899527,0.18899527 0 0 0 0.183,0.18359 v 0 a 0.18899527,0.18899527 0 0 0 0.09,-0.0234 c 0.122,-0.0672 0.25,-0.12605 0.385,-0.17382 a 0.18899527,0.18899527 0 0 0 0.127,-0.17774 c 0,-0.0536 -0.01,-0.0677 -0.02,-0.0801 0,-0.003 0,-0.0204 0,-0.0215 a 0.18899527,0.18899527 0 0 0 0,-0.0117 c -0.03,-0.0609 -0.06,-0.12168 -0.09,-0.18359 -0.02,-0.0412 -0.04,-0.10014 -0.07,-0.16602 v -0.002 c 0,-0.009 0,-0.0124 -0.01,-0.0215 -0.02,-0.0674 -0.05,-0.12721 -0.06,-0.16992 -0.02,-0.0653 -0.04,-0.13245 -0.06,-0.19922 -0.02,-0.0668 -0.04,-0.12549 -0.04,-0.17578 -0.01,-0.0859 -0.03,-0.15521 -0.04,-0.20703 -0.01,-0.0696 -0.02,-0.13883 -0.03,-0.20898 v 0.0273 c 0,-0.079 -0.01,-0.1476 -0.02,-0.21289 v -0.004 -0.21289 -0.21679 c 0,-0.0539 0,-0.11512 0.02,-0.18555 a 0.18899527,0.18899527 0 0 0 0,-0.0274 c 0,-0.0348 0.02,-0.0945 0.03,-0.18164 0.01,-0.0694 0.02,-0.13008 0.03,-0.18164 0.02,-0.0843 0.03,-0.15101 0.05,-0.20117 0.02,-0.0668 0.04,-0.13384 0.06,-0.19922 0.02,-0.0655 0.04,-0.12091 0.06,-0.16992 a 0.18899527,0.18899527 0 0 0 0.01,-0.0234 c 0.01,-0.0462 0.04,-0.10097 0.07,-0.16406 0.03,-0.0633 0.06,-0.12605 0.09,-0.18555 0.03,-0.0596 0.05,-0.1104 0.09,-0.1582 a 0.18899527,0.18899527 0 0 0 0.01,-0.0195 c 0.02,-0.0417 0.06,-0.0955 0.09,-0.1543 v -0.008 c 0.05,-0.0659 0.07,-0.11883 0.103,-0.15625 a 0.18899527,0.18899527 0 0 0 0,-0.006 c 0.04,-0.0545 0.08,-0.10602 0.117,-0.15625 a 0.18899527,0.18899527 0 0 0 0,-0.004 c 0.04,-0.0526 0.07,-0.0996 0.114,-0.14257 a 0.18899527,0.18899527 0 0 0 0.01,-0.0137 c 0,-0.008 0.01,-0.0179 0.03,-0.0351 a 0.18899527,0.18899527 0 0 0 -0.08,-0.29297 c -0.05,-0.0191 -0.09,-0.0366 -0.142,-0.0527 a 0.18899527,0.18899527 0 0 0 -0.02,-0.006 c -0.136,-0.0291 -0.274,-0.0459 -0.412,-0.0508 z m -0.156,0.0937 a 0.18899527,0.18899527 0 0 0 -0.04,0.0957 c 0,0.003 0,-0.0272 0.01,-0.0664 0,-0.0147 0.02,-0.0178 0.03,-0.0293 z m 0.236,0.29688 c 0.03,0.002 0.06,0.006 0.09,0.01 -0.03,0.0429 -0.06,0.0861 -0.1,0.1289 -0.06,0.0726 -0.08,0.13462 -0.117,0.17969 a 0.18899527,0.18899527 0 0 0 0,0.008 c -0.03,0.0531 -0.07,0.11417 -0.113,0.18945 -0.04,0.0636 -0.07,0.12503 -0.101,0.18165 -0.03,0.0629 -0.06,0.12715 -0.09,0.18945 -0.03,0.0625 -0.06,0.13246 -0.09,0.21484 -0.03,0.07 -0.05,0.13849 -0.07,0.19727 -0.02,0.0661 -0.04,0.13177 -0.06,0.19922 -0.03,0.0839 -0.03,0.15283 -0.05,0.20507 -0.03,0.085 -0.04,0.16286 -0.05,0.23243 0,0.0518 -0.03,0.13008 -0.03,0.23632 0,0.0644 -0.02,0.1339 -0.02,0.2129 v 0.21679 0.2168 a 0.18899527,0.18899527 0 0 0 0,0.0254 c 0.01,0.0717 0.02,0.13487 0.02,0.1875 a 0.18899527,0.18899527 0 0 0 0,0.0273 c 0.01,0.0709 0.02,0.13963 0.03,0.20899 0.01,0.0871 0.03,0.15634 0.04,0.20703 0.01,0.0863 0.03,0.16307 0.06,0.23047 0.02,0.0674 0.04,0.13313 0.06,0.19922 0.03,0.0828 0.06,0.14951 0.07,0.19726 a 0.18899527,0.18899527 0 0 0 0.01,0.0234 c 0.02,0.0498 0.04,0.11477 0.08,0.19336 0,0.0133 0.01,0.0259 0.02,0.0391 -0.02,0.01 -0.04,0.0192 -0.07,0.0293 0,-0.0167 -0.02,-0.0291 -0.02,-0.0469 -0.03,-0.0694 -0.06,-0.14038 -0.09,-0.21093 -0.03,-0.0706 -0.06,-0.13609 -0.07,-0.19336 a 0.18899527,0.18899527 0 0 0 0,-0.0215 c -0.03,-0.0589 -0.04,-0.12327 -0.06,-0.19726 -0.01,-0.053 -0.03,-0.12316 -0.04,-0.20118 v -0.0234 c -0.01,-0.0795 -0.03,-0.1501 -0.03,-0.20508 -0.01,-0.093 -0.03,-0.16286 -0.03,-0.20899 a 0.18899527,0.18899527 0 0 0 0,-0.0234 c -0.01,-0.0782 -0.02,-0.14936 -0.02,-0.21289 v -0.24024 -0.24023 c 0,-0.066 0.02,-0.13672 0.02,-0.21289 0.01,-0.078 0.02,-0.15531 0.03,-0.23242 0.01,-0.0772 0.02,-0.14502 0.03,-0.20508 a 0.18899527,0.18899527 0 0 0 0,-0.0234 c 0,-0.0593 0.03,-0.12679 0.04,-0.20117 0.01,-0.0529 0.04,-0.12059 0.06,-0.19727 v -0.0176 c 0,-0.002 0,-0.002 0,-0.004 0.03,-0.0752 0.05,-0.14232 0.07,-0.19336 0.03,-0.0706 0.06,-0.14161 0.09,-0.21094 0.04,-0.0666 0.07,-0.1296 0.09,-0.1875 v -0.004 c 0,-0.004 0,-0.008 0,-0.0117 0.04,-0.0696 0.07,-0.13102 0.1,-0.17969 a 0.18899527,0.18899527 0 0 0 0,-0.006 c 0.03,-0.0618 0.07,-0.1248 0.111,-0.1875 a 0.18899527,0.18899527 0 0 0 0,-0.006 c 0.03,-0.045 0.07,-0.10345 0.115,-0.17188 v -0.008 c 0.03,-0.0382 0.05,-0.0693 0.07,-0.10156 z m -0.459,4.44727 h 0.06 v 0.17382 a 0.18899527,0.18899527 0 0 0 -0.03,-0.0957 c -0.01,-0.0231 -0.02,-0.0526 -0.04,-0.0781 z"
           id="path389" /></g><g
         id="g391"
         transform="matrix(-0.98586959,-0.16751462,-0.16751462,0.98586959,35846.108,2987.9863)"
         style="fill:#b1feb8;fill-opacity:0.811679"><path
           style="color:#000000;fill:#b1feb8;fill-opacity:0.811679;stroke-linecap:round;stroke-linejoin:round;stroke-miterlimit:0;-inkscape-stroke:none;paint-order:fill markers stroke"
           d="m 18006.117,476.94922 a 2.5858266,2.1832988 0 0 1 0.414,-0.18555 c 0,-0.01 -0.01,-0.0194 -0.01,-0.0293 -0.03,-0.0612 -0.06,-0.12274 -0.09,-0.18555 -0.03,-0.0628 -0.05,-0.12709 -0.08,-0.19141 -0.02,-0.0643 -0.05,-0.12957 -0.07,-0.19531 -0.02,-0.0657 -0.04,-0.13215 -0.06,-0.19922 -0.02,-0.0671 -0.04,-0.13481 -0.05,-0.20312 -0.01,-0.0683 -0.03,-0.13757 -0.04,-0.20703 -0.01,-0.0695 -0.02,-0.13845 -0.03,-0.20899 0,-0.0705 -0.01,-0.14138 -0.02,-0.21289 0,-0.0715 0,-0.1444 0,-0.21679 0,-0.0724 0,-0.14529 0,-0.2168 0,-0.0715 0.01,-0.14237 0.02,-0.21289 0,-0.0705 0.02,-0.13953 0.03,-0.20899 0.01,-0.0695 0.02,-0.13873 0.04,-0.20703 0.02,-0.0683 0.03,-0.13607 0.05,-0.20312 0.02,-0.0671 0.04,-0.1335 0.06,-0.19922 0.02,-0.0657 0.04,-0.13102 0.07,-0.19531 0.02,-0.0643 0.05,-0.12667 0.08,-0.18946 0.03,-0.0628 0.06,-0.12631 0.09,-0.1875 0.03,-0.0612 0.06,-0.12019 0.1,-0.17968 0.03,-0.0595 0.07,-0.11806 0.106,-0.17579 0.04,-0.0577 0.07,-0.11601 0.113,-0.17187 0.04,-0.0559 0.08,-0.11016 0.123,-0.16406 0.04,-0.0539 0.08,-0.10634 0.129,-0.15821 0.01,-0.0129 0.02,-0.0244 0.03,-0.0371 a 2.632786,3.2054734 0 0 0 -0.131,-0.0488 2.632786,3.2054734 0 0 0 -0.379,-0.0469 c 0,0.006 0,0.0117 -0.01,0.0176 -0.05,0.0597 -0.09,0.11977 -0.135,0.18164 -0.04,0.0619 -0.09,0.12551 -0.127,0.18945 -0.04,0.0639 -0.08,0.12939 -0.117,0.19532 -0.04,0.0659 -0.07,0.13336 -0.108,0.20117 -0.03,0.0678 -0.06,0.13548 -0.1,0.20508 -0.03,0.0696 -0.06,0.13965 -0.09,0.21093 -0.03,0.0713 -0.05,0.14392 -0.08,0.2168 -0.02,0.0729 -0.05,0.14633 -0.07,0.2207 -0.02,0.0744 -0.04,0.14884 -0.05,0.22461 -0.02,0.0758 -0.03,0.1534 -0.04,0.23047 -0.01,0.0771 -0.02,0.15415 -0.03,0.23242 0,0.0783 -0.01,0.15695 -0.02,0.23633 0,0.0794 0,0.15984 0,0.24024 0,0.0804 0,0.16084 0,0.24023 0,0.0794 0.01,0.15804 0.02,0.23633 0,0.0783 0.02,0.15534 0.03,0.23242 0.01,0.0771 0.03,0.15468 0.04,0.23047 0.02,0.0758 0.03,0.15022 0.05,0.22461 0.02,0.0744 0.04,0.14781 0.07,0.2207 0.02,0.0729 0.05,0.14549 0.08,0.2168 0.03,0.0713 0.06,0.14132 0.09,0.21094 0.03,0.0696 0.06,0.13919 0.1,0.20703 0,0.005 0,0.0104 0,0.0156 z"
           id="path390" /><path
           style="color:#000000;fill:#b1feb8;fill-opacity:0.811679;stroke-linecap:round;stroke-linejoin:round;stroke-miterlimit:0;-inkscape-stroke:none;paint-order:fill markers stroke"
           d="m 18006.619,471.92187 a 0.18899527,0.18899527 0 0 0 -0.146,0.0742 0.18899527,0.18899527 0 0 0 -0.02,0.0117 c -0.06,0.0695 -0.1,0.13351 -0.143,0.19141 a 0.18899527,0.18899527 0 0 0 0,0.008 c -0.03,0.0512 -0.09,0.11843 -0.133,0.19922 -0.04,0.0633 -0.08,0.1293 -0.117,0.19727 -0.05,0.0765 -0.08,0.14449 -0.11,0.20117 a 0.18899527,0.18899527 0 0 0 0,0.0156 c -0.03,0.0677 -0.06,0.1284 -0.09,0.1875 a 0.18899527,0.18899527 0 0 0 -0.01,0.0195 c -0.03,0.0699 -0.06,0.13894 -0.09,0.21094 -0.04,0.0859 -0.06,0.15939 -0.08,0.21875 a 0.18899527,0.18899527 0 0 0 0,0.0215 c -0.02,0.0576 -0.05,0.13264 -0.07,0.22265 -0.02,0.0673 -0.04,0.14283 -0.05,0.22461 -0.02,0.0915 -0.03,0.1789 -0.05,0.25586 -0.01,0.0771 -0.02,0.15391 -0.03,0.23242 a 0.18899527,0.18899527 0 0 0 0,0.0234 c 0,0.0622 -0.01,0.13337 -0.02,0.21289 a 0.18899527,0.18899527 0 0 0 0,0.0234 v 0.24023 0.24024 c 0,0.0953 0.01,0.1814 0.02,0.25976 v -0.0234 c 0,0.11048 0.02,0.19473 0.03,0.25586 0.01,0.0929 0.03,0.17245 0.04,0.23243 a 0.18899527,0.18899527 0 0 0 0,0.0234 c 0.02,0.0613 0.02,0.13496 0.05,0.22461 0.02,0.0681 0.04,0.14437 0.07,0.22266 0,0.007 0,0.0124 0,0.0195 0,6.3e-4 0,0.001 0,0.002 0.02,0.0792 0.05,0.15314 0.08,0.21875 0.03,0.0721 0.06,0.14108 0.09,0.21094 0.03,0.0696 0.06,0.14758 0.111,0.22852 l -0.02,-0.0742 a 0.18899527,0.18899527 0 0 0 0.183,0.18359 v 0 a 0.18899527,0.18899527 0 0 0 0.09,-0.0234 c 0.122,-0.0672 0.25,-0.12605 0.385,-0.17382 a 0.18899527,0.18899527 0 0 0 0.127,-0.17774 c 0,-0.0536 -0.01,-0.0677 -0.02,-0.0801 0,-0.003 0,-0.0204 0,-0.0215 a 0.18899527,0.18899527 0 0 0 0,-0.0117 c -0.03,-0.0609 -0.06,-0.12168 -0.09,-0.18359 -0.02,-0.0412 -0.04,-0.10014 -0.07,-0.16602 v -0.002 c 0,-0.009 0,-0.0124 -0.01,-0.0215 -0.02,-0.0674 -0.05,-0.12721 -0.06,-0.16992 -0.02,-0.0653 -0.04,-0.13245 -0.06,-0.19922 -0.02,-0.0668 -0.04,-0.12549 -0.04,-0.17578 -0.01,-0.0859 -0.03,-0.15521 -0.04,-0.20703 -0.01,-0.0696 -0.02,-0.13883 -0.03,-0.20898 v 0.0273 c 0,-0.079 -0.01,-0.1476 -0.02,-0.21289 v -0.004 -0.21289 -0.21679 c 0,-0.0539 0,-0.11512 0.02,-0.18555 a 0.18899527,0.18899527 0 0 0 0,-0.0274 c 0,-0.0348 0.02,-0.0945 0.03,-0.18164 0.01,-0.0694 0.02,-0.13008 0.03,-0.18164 0.02,-0.0843 0.03,-0.15101 0.05,-0.20117 0.02,-0.0668 0.04,-0.13384 0.06,-0.19922 0.02,-0.0655 0.04,-0.12091 0.06,-0.16992 a 0.18899527,0.18899527 0 0 0 0.01,-0.0234 c 0.01,-0.0462 0.04,-0.10097 0.07,-0.16406 0.03,-0.0633 0.06,-0.12605 0.09,-0.18555 0.03,-0.0596 0.05,-0.1104 0.09,-0.1582 a 0.18899527,0.18899527 0 0 0 0.01,-0.0195 c 0.02,-0.0417 0.06,-0.0955 0.09,-0.1543 v -0.008 c 0.05,-0.0659 0.07,-0.11883 0.103,-0.15625 a 0.18899527,0.18899527 0 0 0 0,-0.006 c 0.04,-0.0545 0.08,-0.10602 0.117,-0.15625 a 0.18899527,0.18899527 0 0 0 0,-0.004 c 0.04,-0.0526 0.07,-0.0996 0.114,-0.14257 a 0.18899527,0.18899527 0 0 0 0.01,-0.0137 c 0,-0.008 0.01,-0.0179 0.03,-0.0351 a 0.18899527,0.18899527 0 0 0 -0.08,-0.29297 c -0.05,-0.0191 -0.09,-0.0366 -0.142,-0.0527 a 0.18899527,0.18899527 0 0 0 -0.02,-0.006 c -0.136,-0.0291 -0.274,-0.0459 -0.412,-0.0508 z m -0.156,0.0937 a 0.18899527,0.18899527 0 0 0 -0.04,0.0957 c 0,0.003 0,-0.0272 0.01,-0.0664 0,-0.0147 0.02,-0.0178 0.03,-0.0293 z m 0.236,0.29688 c 0.03,0.002 0.06,0.006 0.09,0.01 -0.03,0.0429 -0.06,0.0861 -0.1,0.1289 -0.06,0.0726 -0.08,0.13462 -0.117,0.17969 a 0.18899527,0.18899527 0 0 0 0,0.008 c -0.03,0.0531 -0.07,0.11417 -0.113,0.18945 -0.04,0.0636 -0.07,0.12503 -0.101,0.18165 -0.03,0.0629 -0.06,0.12715 -0.09,0.18945 -0.03,0.0625 -0.06,0.13246 -0.09,0.21484 -0.03,0.07 -0.05,0.13849 -0.07,0.19727 -0.02,0.0661 -0.04,0.13177 -0.06,0.19922 -0.03,0.0839 -0.03,0.15283 -0.05,0.20507 -0.03,0.085 -0.04,0.16286 -0.05,0.23243 0,0.0518 -0.03,0.13008 -0.03,0.23632 0,0.0644 -0.02,0.1339 -0.02,0.2129 v 0.21679 0.2168 a 0.18899527,0.18899527 0 0 0 0,0.0254 c 0.01,0.0717 0.02,0.13487 0.02,0.1875 a 0.18899527,0.18899527 0 0 0 0,0.0273 c 0.01,0.0709 0.02,0.13963 0.03,0.20899 0.01,0.0871 0.03,0.15634 0.04,0.20703 0.01,0.0863 0.03,0.16307 0.06,0.23047 0.02,0.0674 0.04,0.13313 0.06,0.19922 0.03,0.0828 0.06,0.14951 0.07,0.19726 a 0.18899527,0.18899527 0 0 0 0.01,0.0234 c 0.02,0.0498 0.04,0.11477 0.08,0.19336 0,0.0133 0.01,0.0259 0.02,0.0391 -0.02,0.01 -0.04,0.0192 -0.07,0.0293 0,-0.0167 -0.02,-0.0291 -0.02,-0.0469 -0.03,-0.0694 -0.06,-0.14038 -0.09,-0.21093 -0.03,-0.0706 -0.06,-0.13609 -0.07,-0.19336 a 0.18899527,0.18899527 0 0 0 0,-0.0215 c -0.03,-0.0589 -0.04,-0.12327 -0.06,-0.19726 -0.01,-0.053 -0.03,-0.12316 -0.04,-0.20118 v -0.0234 c -0.01,-0.0795 -0.03,-0.1501 -0.03,-0.20508 -0.01,-0.093 -0.03,-0.16286 -0.03,-0.20899 a 0.18899527,0.18899527 0 0 0 0,-0.0234 c -0.01,-0.0782 -0.02,-0.14936 -0.02,-0.21289 v -0.24024 -0.24023 c 0,-0.066 0.02,-0.13672 0.02,-0.21289 0.01,-0.078 0.02,-0.15531 0.03,-0.23242 0.01,-0.0772 0.02,-0.14502 0.03,-0.20508 a 0.18899527,0.18899527 0 0 0 0,-0.0234 c 0,-0.0593 0.03,-0.12679 0.04,-0.20117 0.01,-0.0529 0.04,-0.12059 0.06,-0.19727 v -0.0176 c 0,-0.002 0,-0.002 0,-0.004 0.03,-0.0752 0.05,-0.14232 0.07,-0.19336 0.03,-0.0706 0.06,-0.14161 0.09,-0.21094 0.04,-0.0666 0.07,-0.1296 0.09,-0.1875 v -0.004 c 0,-0.004 0,-0.008 0,-0.0117 0.04,-0.0696 0.07,-0.13102 0.1,-0.17969 a 0.18899527,0.18899527 0 0 0 0,-0.006 c 0.03,-0.0618 0.07,-0.1248 0.111,-0.1875 a 0.18899527,0.18899527 0 0 0 0,-0.006 c 0.03,-0.045 0.07,-0.10345 0.115,-0.17188 v -0.008 c 0.03,-0.0382 0.05,-0.0693 0.07,-0.10156 z m -0.459,4.44727 h 0.06 v 0.17382 a 0.18899527,0.18899527 0 0 0 -0.03,-0.0957 c -0.01,-0.0231 -0.02,-0.0526 -0.04,-0.0781 z"
           id="path391" /></g></g></g></svg>
