<?xml version="1.0" encoding="UTF-8" standalone="no"?>
<!-- Created with Inkscape (http://www.inkscape.org/) -->

<svg
   version="1.1"
   id="svg1"
   width="0.87898225cm"
   height="0.83225286cm"
   viewBox="0 0 33.221376 31.455226"
   xml:space="preserve"
   xmlns="http://www.w3.org/2000/svg"
   xmlns:svg="http://www.w3.org/2000/svg"><defs
     id="defs1" /><g
     id="layer16"
     transform="translate(-18878.431,-518.49905)"><g
       id="g405"
       transform="translate(1216.2047,12.983369)"><rect
         style="fill:#ffffff;fill-opacity:1;stroke:#01a913;stroke-width:1.13386;stroke-linecap:round;stroke-linejoin:round;stroke-miterlimit:0;stroke-dasharray:none;stroke-opacity:1;paint-order:fill markers stroke"
         id="rect396"
         width="32.087517"
         height="30.321367"
         x="17662.793"
         y="506.08261"
         ry="6.7728148"
         rx="6.7728148" /><g
         id="g404"
         transform="translate(0,-35.771453)"><g
           id="g398"
           transform="translate(-2.0791546,-0.46691092)"><path
             style="opacity:1;fill:#01a913;fill-opacity:1;stroke:none;stroke-width:0.0196691;stroke-linecap:round;stroke-linejoin:round;stroke-miterlimit:0;stroke-dasharray:none;stroke-opacity:1;paint-order:fill markers stroke"
             d="m 17678.917,566.01166 6.602,-0.23811 v -21.38619 c -4.003,0 -6.602,2.53236 -6.602,5.26139 z"
             id="path397" /><path
             style="opacity:1;fill:none;fill-opacity:1;stroke:#015d0a;stroke-width:0.876978;stroke-linecap:round;stroke-linejoin:round;stroke-miterlimit:0;stroke-dasharray:none;stroke-opacity:1;paint-order:fill markers stroke"
             d="m 17679.08,565.77701 -0.03,4.07599 -3.237,0.27988 3.27,-0.24716 3.222,0.25175"
             id="path398" /></g><path
           style="fill:none;fill-opacity:1;stroke:#015d0a;stroke-width:0.377953;stroke-linecap:round;stroke-linejoin:round;stroke-miterlimit:0;stroke-dasharray:none;stroke-opacity:1;paint-order:fill markers stroke"
           id="path399"
           d="m 17679.519,554.43251 -0.971,-1.34706 -1.52,0.6678 0.448,-1.59881 -1.47,-0.77214 1.529,-0.64662 -0.313,-1.63064 1.459,0.79249 1.08,-1.26124 0.29,1.63483 1.66,0.0579 -1.098,1.24612 0.99,1.33344 -1.659,-0.081 z"
           transform="matrix(0.87616758,0,0,0.87616758,2190.4404,67.850551)" /><g
           id="g401"
           transform="matrix(0.77271615,0,0,0.77271615,4009.1925,126.85037)"><path
             style="opacity:1;fill:#01a913;fill-opacity:1;stroke:none;stroke-width:0.0196691;stroke-linecap:round;stroke-linejoin:round;stroke-miterlimit:0;stroke-dasharray:none;stroke-opacity:1;paint-order:fill markers stroke"
             d="m 17678.917,566.01166 6.602,-0.23811 v -21.38619 c -4.003,0 -6.602,2.53236 -6.602,5.26139 z"
             id="path400" /><path
             style="opacity:1;fill:none;fill-opacity:1;stroke:#015d0a;stroke-width:0.876978;stroke-linecap:round;stroke-linejoin:round;stroke-miterlimit:0;stroke-dasharray:none;stroke-opacity:1;paint-order:fill markers stroke"
             d="m 17679.08,565.77701 -0.03,4.07599 -3.237,0.27988 3.27,-0.24716 3.222,0.25175"
             id="path401" /></g><circle
           style="fill:none;fill-opacity:1;stroke:#015d0a;stroke-width:0.377953;stroke-linecap:round;stroke-linejoin:round;stroke-miterlimit:0;stroke-dasharray:none;stroke-opacity:1;paint-order:fill markers stroke"
           id="circle401"
           cx="17672.486"
           cy="552.67548"
           r="1.5600705" /><g
           id="g403"
           transform="matrix(0.66220535,0,0,0.66220535,5978.9851,189.10998)"><path
             style="opacity:1;fill:#01a913;fill-opacity:1;stroke:none;stroke-width:0.0196691;stroke-linecap:round;stroke-linejoin:round;stroke-miterlimit:0;stroke-dasharray:none;stroke-opacity:1;paint-order:fill markers stroke"
             d="m 17678.917,566.01166 6.602,-0.23811 v -21.38619 c -4.003,0 -6.602,2.53236 -6.602,5.26139 z"
             id="path402" /><path
             style="opacity:1;fill:none;fill-opacity:1;stroke:#015d0a;stroke-width:0.876978;stroke-linecap:round;stroke-linejoin:round;stroke-miterlimit:0;stroke-dasharray:none;stroke-opacity:1;paint-order:fill markers stroke"
             d="m 17679.08,565.77701 -0.03,4.07599 -3.237,0.27988 3.27,-0.24716 3.222,0.25175"
             id="path403" /></g><path
           style="fill:none;fill-opacity:1;stroke:#015d0a;stroke-width:0.377953;stroke-linecap:round;stroke-linejoin:round;stroke-miterlimit:0;stroke-dasharray:none;stroke-opacity:1;paint-order:fill markers stroke"
           id="path404"
           d="m 17690.731,552.43799 -2.208,0.009 -2.209,0.009 1.097,-1.91662 1.097,-1.91663 1.111,1.90795 z"
           transform="matrix(0.64812026,0,0,0.64812026,6223.9463,196.4303)" /></g></g></g></svg>
