<?xml version="1.0" encoding="UTF-8" standalone="no"?>
<!-- Created with Inkscape (http://www.inkscape.org/) -->

<svg
   version="1.1"
   id="svg1"
   width="0.87898225cm"
   height="0.83225286cm"
   viewBox="0 0 33.221376 31.455226"
   xml:space="preserve"
   xmlns="http://www.w3.org/2000/svg"
   xmlns:svg="http://www.w3.org/2000/svg"><defs
     id="defs1" /><g
     id="layer16"
     transform="translate(-18878.431,-266.91458)"><g
       id="g419"
       transform="translate(1216.2047,12.983369)"><rect
         style="fill:#ffffff;fill-opacity:1;stroke:#01a913;stroke-width:1.13386;stroke-linecap:round;stroke-linejoin:round;stroke-miterlimit:0;stroke-dasharray:none;stroke-opacity:1;paint-order:fill markers stroke"
         id="rect413"
         width="32.087517"
         height="30.321367"
         x="17662.793"
         y="254.49814"
         ry="6.7728148"
         rx="6.7728148" /><g
         id="g418"
         transform="matrix(0.15181177,0,0,0.15181177,14967.596,122.90578)"><path
           style="opacity:1;fill:none;fill-opacity:1;stroke:#01a913;stroke-width:7.93701;stroke-linecap:round;stroke-linejoin:round;stroke-miterlimit:0;stroke-dasharray:none;stroke-opacity:1;paint-order:fill markers stroke"
           d="m 17852.338,917.85656 50.531,132.28224"
           id="path414" /><path
           style="opacity:1;fill:none;fill-opacity:1;stroke:#01a913;stroke-width:7.93701;stroke-linecap:round;stroke-linejoin:round;stroke-miterlimit:0;stroke-dasharray:none;stroke-opacity:1;paint-order:fill markers stroke"
           d="m 17886.318,886.31707 c 14.297,40.04853 5.045,76.52346 -5.115,103.2845 l -22.583,59.48143"
           id="path415" /><path
           style="opacity:1;fill:none;fill-opacity:1;stroke:#01a913;stroke-width:3.02362;stroke-linecap:round;stroke-linejoin:round;stroke-miterlimit:0;stroke-dasharray:none;stroke-opacity:1;paint-order:fill markers stroke"
           d="m 17881.278,988.82593 -30.314,27.54507"
           id="path416" /><path
           style="opacity:1;fill:none;fill-opacity:1;stroke:#01a913;stroke-width:3.02362;stroke-linecap:round;stroke-linejoin:round;stroke-miterlimit:0;stroke-dasharray:none;stroke-opacity:1;paint-order:fill markers stroke"
           d="m 17880.038,987.09363 -64.685,48.71017"
           id="path417" /><path
           style="opacity:1;fill:#015d0a;fill-opacity:1;stroke:none;stroke-width:0.377953;stroke-linecap:round;stroke-linejoin:round;stroke-miterlimit:0;stroke-dasharray:none;stroke-opacity:1;paint-order:fill markers stroke"
           d="m 17843.864,917.39073 -32.11,119.83207 a 9.3040917,9.3040917 57.83408 0 0 7.265,11.5514 l 36.875,6.9462 a 9.7150903,9.7150903 144.73844 0 0 11.399,-8.0594 l 25.353,-163.60577 a 4.2676506,4.2676506 31.846584 0 0 -6.672,-4.14444 l -31.304,22.01358 a 27.659415,27.659415 124.94223 0 0 -10.806,15.46636 z"
           id="path418" /></g><path
         id="path419"
         style="fill:#01a913;fill-opacity:1;stroke-width:3.02362;stroke-linecap:round;stroke-linejoin:round;stroke-miterlimit:0;paint-order:fill markers stroke"
         d="m 17679.451,305.87711 -1.379,-2.82719 -2.012,1.70269 1.303,-4.01424 -0.402,-2.43132 1.635,-0.74514 1.518,-3.30629 0.131,3.00639 2.197,0.22365 -2.368,3.3152 z"
         transform="translate(-1.1675311,-30.597055)" /></g></g></svg>
